<svg width="12" height="12" viewBox="0 0 12 12" fill="none" xmlns="http://www.w3.org/2000/svg">
<path d="M6 11C3.2385 11 1 8.7615 1 6C1 3.2385 3.2385 1 6 1C8.7615 1 11 3.2385 11 6C11 8.7615 8.7615 11 6 11ZM6 10C7.06087 10 8.07828 9.57857 8.82843 8.82843C9.57857 8.07828 10 7.06087 10 6C10 4.93913 9.57857 3.92172 8.82843 3.17157C8.07828 2.42143 7.06087 2 6 2C4.93913 2 3.92172 2.42143 3.17157 3.17157C2.42143 3.92172 2 4.93913 2 6C2 7.06087 2.42143 8.07828 3.17157 8.82843C3.92172 9.57857 4.93913 10 6 10ZM6 3.5C6.13261 3.5 6.25978 3.55268 6.35355 3.64645C6.44732 3.74021 6.5 3.86739 6.5 4V6.5C6.5 6.63261 6.44732 6.75978 6.35355 6.85355C6.25978 6.94732 6.13261 7 6 7C5.86739 7 5.74021 6.94732 5.64645 6.85355C5.55268 6.75978 5.5 6.63261 5.5 6.5V4C5.5 3.86739 5.55268 3.74021 5.64645 3.64645C5.74021 3.55268 5.86739 3.5 6 3.5ZM6 8.5C5.86739 8.5 5.74021 8.44732 5.64645 8.35355C5.55268 8.25978 5.5 8.13261 5.5 8C5.5 7.86739 5.55268 7.74021 5.64645 7.64645C5.74021 7.55268 5.86739 7.5 6 7.5C6.13261 7.5 6.25978 7.55268 6.35355 7.64645C6.44732 7.74021 6.5 7.86739 6.5 8C6.5 8.13261 6.44732 8.25978 6.35355 8.35355C6.25978 8.44732 6.13261 8.5 6 8.5Z" fill="#FCC219"/>
</svg>
