<svg width="30" height="30" viewBox="0 0 30 30" fill="none" xmlns="http://www.w3.org/2000/svg">
<path d="M15 2.56055C13.3585 2.56055 11.733 2.88387 10.2165 3.51205C8.69989 4.14024 7.3219 5.06098 6.16117 6.22171C3.81696 8.56592 2.5 11.7453 2.5 15.0605C2.5 20.5855 6.0875 25.273 11.05 26.9355C11.675 27.0355 11.875 26.648 11.875 26.3105V24.198C8.4125 24.948 7.675 22.523 7.675 22.523C7.1 21.073 6.2875 20.6855 6.2875 20.6855C5.15 19.9105 6.375 19.9355 6.375 19.9355C7.625 20.023 8.2875 21.223 8.2875 21.223C9.375 23.123 11.2125 22.5605 11.925 22.2605C12.0375 21.448 12.3625 20.898 12.7125 20.5855C9.9375 20.273 7.025 19.198 7.025 14.4355C7.025 13.048 7.5 11.9355 8.3125 11.048C8.1875 10.7355 7.75 9.43555 8.4375 7.74805C8.4375 7.74805 9.4875 7.41055 11.875 9.02305C12.8625 8.74805 13.9375 8.61055 15 8.61055C16.0625 8.61055 17.1375 8.74805 18.125 9.02305C20.5125 7.41055 21.5625 7.74805 21.5625 7.74805C22.25 9.43555 21.8125 10.7355 21.6875 11.048C22.5 11.9355 22.975 13.048 22.975 14.4355C22.975 19.2105 20.05 20.2605 17.2625 20.573C17.7125 20.9605 18.125 21.723 18.125 22.8855V26.3105C18.125 26.648 18.325 27.048 18.9625 26.9355C23.925 25.2605 27.5 20.5855 27.5 15.0605C27.5 13.419 27.1767 11.7936 26.5485 10.277C25.9203 8.76043 24.9996 7.38244 23.8388 6.22171C22.6781 5.06098 21.3001 4.14024 19.7835 3.51205C18.267 2.88387 16.6415 2.56055 15 2.56055Z" fill="#F5F5F5" fill-opacity="0.5"/>
</svg>
